# xmcd CD database file
#
# Track frame offsets:
#	150
#	13412
#	30965
#	41460
#	57822
#	74225
#	88877
#	100662
#	118285
#	136815
#	150592
#	162655
#	180155
#	195595
#
# Disc length: 2843 seconds
#
# Revision: 0
# Processed by: cddbd v1.5.2PL0 Copyright (c) Steve Scherf et al.
# Submitted via: CDex 1.70beta2
#
DISCID=ba0b190e
DTITLE=Jones Country - Jones Country JCY-012
DYEAR=0000
DGENRE=Country
TTITLE0=Don Williams/True Love
TTITLE1=Hank Williams Jr/All For The Love Of Sunshine
TTITLE2=Hank Williams Jr/Honky Tonkin'
TTITLE3=Hank Williams Jr/Leave Them Boys Alone
TTITLE4=Hank Williams Jr/Major Moves
TTITLE5=Hank Williams Jr/Whiskey Bent And Hell Bound
TTITLE6=Tammy Wynette/Good Lovin' (Makes It Right)
TTITLE7=Dwight Yoakam/I Sang Dixie
TTITLE8=Gary Allan/Smoke Rings In The Dark
TTITLE9=Garth Brooks/Do What You Gotta Do
TTITLE10=Brooks and Dunn/Beer Thirty
TTITLE11=Dixie Chicks/Goodbye Earl (Album Version)
TTITLE12=Shedaisy/This Woman Needs
TTITLE13=Trisha Yearwood/Real Live Woman
EXTD=YEAR: 0000
EXTT0=
EXTT1=
EXTT2=
EXTT3=
EXTT4=
EXTT5=
EXTT6=
EXTT7=
EXTT8=
EXTT9=
EXTT10=
EXTT11=
EXTT12=
EXTT13=
PLAYORDER=
